<mxfile host="app.diagrams.net" modified="2023-03-22T14:51:50.857Z" agent="5.0 (Windows NT 10.0; Win64; x64) AppleWebKit/537.36 (KHTML, like Gecko) Chrome/111.0.0.0 Safari/537.36" etag="ZPFm7IvwB8ym2rJMpk6J" version="21.0.8" type="github">
  <diagram id="autghe06MED7xF48abRV" name="Page-1">
    <mxGraphModel dx="794" dy="1646" grid="1" gridSize="10" guides="1" tooltips="1" connect="1" arrows="1" fold="1" page="1" pageScale="1" pageWidth="827" pageHeight="1169" math="0" shadow="0">
      <root>
        <mxCell id="0" />
        <mxCell id="1" parent="0" />
        <mxCell id="SwxSvwiUy3ZBpfJo5GRu-11" style="edgeStyle=orthogonalEdgeStyle;rounded=0;orthogonalLoop=1;jettySize=auto;html=1;exitX=1;exitY=0.5;exitDx=0;exitDy=0;fillColor=#d5e8d4;strokeColor=#82b366;" parent="1" source="SwxSvwiUy3ZBpfJo5GRu-1" target="SwxSvwiUy3ZBpfJo5GRu-2" edge="1">
          <mxGeometry relative="1" as="geometry" />
        </mxCell>
        <mxCell id="DBfH7FKL9_jUQKkKiDcR-1" value="&lt;i&gt;SCAN_PRODUIT&lt;/i&gt;" style="edgeLabel;html=1;align=center;verticalAlign=middle;resizable=0;points=[];" vertex="1" connectable="0" parent="SwxSvwiUy3ZBpfJo5GRu-11">
          <mxGeometry x="-0.2044" y="3" relative="1" as="geometry">
            <mxPoint as="offset" />
          </mxGeometry>
        </mxCell>
        <mxCell id="SwxSvwiUy3ZBpfJo5GRu-1" value="EtatAttenteClient" style="ellipse;whiteSpace=wrap;html=1;" parent="1" vertex="1">
          <mxGeometry x="80" y="100" width="190" height="80" as="geometry" />
        </mxCell>
        <mxCell id="SwxSvwiUy3ZBpfJo5GRu-2" value="EtatAttenteProduit" style="ellipse;whiteSpace=wrap;html=1;" parent="1" vertex="1">
          <mxGeometry x="390" y="110" width="220" height="80" as="geometry" />
        </mxCell>
        <mxCell id="SwxSvwiUy3ZBpfJo5GRu-3" value="EtatEnregistrement" style="ellipse;whiteSpace=wrap;html=1;" parent="1" vertex="1">
          <mxGeometry x="470" y="360" width="120" height="80" as="geometry" />
        </mxCell>
        <mxCell id="SwxSvwiUy3ZBpfJo5GRu-24" style="edgeStyle=orthogonalEdgeStyle;rounded=0;orthogonalLoop=1;jettySize=auto;html=1;exitX=0.5;exitY=0;exitDx=0;exitDy=0;entryX=0.319;entryY=0.963;entryDx=0;entryDy=0;entryPerimeter=0;fillColor=#d5e8d4;strokeColor=#82b366;" parent="1" source="SwxSvwiUy3ZBpfJo5GRu-4" target="SwxSvwiUy3ZBpfJo5GRu-1" edge="1">
          <mxGeometry relative="1" as="geometry" />
        </mxCell>
        <mxCell id="SwxSvwiUy3ZBpfJo5GRu-25" value="&lt;i&gt;RESET&lt;/i&gt;" style="edgeLabel;html=1;align=center;verticalAlign=middle;resizable=0;points=[];" parent="SwxSvwiUy3ZBpfJo5GRu-24" vertex="1" connectable="0">
          <mxGeometry x="0.1477" y="1" relative="1" as="geometry">
            <mxPoint as="offset" />
          </mxGeometry>
        </mxCell>
        <mxCell id="SwxSvwiUy3ZBpfJo5GRu-4" value="EtatFinal" style="ellipse;whiteSpace=wrap;html=1;" parent="1" vertex="1">
          <mxGeometry x="80" y="350" width="120" height="80" as="geometry" />
        </mxCell>
        <mxCell id="SwxSvwiUy3ZBpfJo5GRu-5" value="EtatProblemePoid" style="ellipse;whiteSpace=wrap;html=1;" parent="1" vertex="1">
          <mxGeometry x="265" y="230" width="140" height="80" as="geometry" />
        </mxCell>
        <mxCell id="SwxSvwiUy3ZBpfJo5GRu-8" value="" style="curved=1;endArrow=classic;html=1;rounded=0;entryX=1;entryY=0.5;entryDx=0;entryDy=0;startArrow=none;fillColor=#d5e8d4;strokeColor=#82b366;" parent="1" source="SwxSvwiUy3ZBpfJo5GRu-9" target="SwxSvwiUy3ZBpfJo5GRu-2" edge="1">
          <mxGeometry width="50" height="50" relative="1" as="geometry">
            <mxPoint x="590" y="400" as="sourcePoint" />
            <mxPoint x="640" y="350" as="targetPoint" />
            <Array as="points" />
          </mxGeometry>
        </mxCell>
        <mxCell id="SwxSvwiUy3ZBpfJo5GRu-10" value="" style="endArrow=classic;html=1;rounded=0;entryX=0.983;entryY=0.638;entryDx=0;entryDy=0;entryPerimeter=0;startArrow=none;fillColor=#d5e8d4;strokeColor=#82b366;" parent="1" source="SwxSvwiUy3ZBpfJo5GRu-12" target="SwxSvwiUy3ZBpfJo5GRu-4" edge="1">
          <mxGeometry width="50" height="50" relative="1" as="geometry">
            <mxPoint x="470" y="400" as="sourcePoint" />
            <mxPoint x="520" y="350" as="targetPoint" />
          </mxGeometry>
        </mxCell>
        <mxCell id="SwxSvwiUy3ZBpfJo5GRu-12" value="&lt;i&gt;PAYER&lt;/i&gt;" style="text;html=1;align=center;verticalAlign=middle;resizable=0;points=[];autosize=1;strokeColor=none;fillColor=none;" parent="1" vertex="1">
          <mxGeometry x="310" y="400" width="50" height="20" as="geometry" />
        </mxCell>
        <mxCell id="SwxSvwiUy3ZBpfJo5GRu-13" value="" style="endArrow=none;html=1;rounded=0;entryX=0.983;entryY=0.638;entryDx=0;entryDy=0;entryPerimeter=0;fillColor=#d5e8d4;strokeColor=#82b366;" parent="1" target="SwxSvwiUy3ZBpfJo5GRu-12" edge="1">
          <mxGeometry width="50" height="50" relative="1" as="geometry">
            <mxPoint x="470" y="400" as="sourcePoint" />
            <mxPoint x="197.96000000000004" y="401.03999999999996" as="targetPoint" />
          </mxGeometry>
        </mxCell>
        <mxCell id="SwxSvwiUy3ZBpfJo5GRu-9" value="&lt;span&gt;SCAN_PRODUIT&lt;/span&gt;" style="text;html=1;align=center;verticalAlign=middle;resizable=0;points=[];autosize=1;strokeColor=none;fillColor=none;fontStyle=2" parent="1" vertex="1">
          <mxGeometry x="600" y="280" width="110" height="20" as="geometry" />
        </mxCell>
        <mxCell id="SwxSvwiUy3ZBpfJo5GRu-14" value="" style="curved=1;endArrow=none;html=1;rounded=0;entryX=0.564;entryY=1.017;entryDx=0;entryDy=0;entryPerimeter=0;fillColor=#d5e8d4;strokeColor=#82b366;" parent="1" target="SwxSvwiUy3ZBpfJo5GRu-9" edge="1">
          <mxGeometry width="50" height="50" relative="1" as="geometry">
            <mxPoint x="590" y="400" as="sourcePoint" />
            <mxPoint x="610" y="200" as="targetPoint" />
            <Array as="points">
              <mxPoint x="610" y="370" />
              <mxPoint x="610" y="330" />
              <mxPoint x="640" y="320" />
            </Array>
          </mxGeometry>
        </mxCell>
        <mxCell id="SwxSvwiUy3ZBpfJo5GRu-15" value="" style="endArrow=classic;html=1;rounded=0;exitX=0.221;exitY=0.921;exitDx=0;exitDy=0;exitPerimeter=0;fillColor=#d5e8d4;strokeColor=#82b366;" parent="1" source="SwxSvwiUy3ZBpfJo5GRu-2" target="SwxSvwiUy3ZBpfJo5GRu-5" edge="1">
          <mxGeometry width="50" height="50" relative="1" as="geometry">
            <mxPoint x="380" y="270" as="sourcePoint" />
            <mxPoint x="430" y="220" as="targetPoint" />
          </mxGeometry>
        </mxCell>
        <mxCell id="SwxSvwiUy3ZBpfJo5GRu-21" value="POSE_ARTICLE^" style="edgeLabel;html=1;align=center;verticalAlign=middle;resizable=0;points=[];fontStyle=2" parent="SwxSvwiUy3ZBpfJo5GRu-15" vertex="1" connectable="0">
          <mxGeometry x="0.3563" relative="1" as="geometry">
            <mxPoint as="offset" />
          </mxGeometry>
        </mxCell>
        <mxCell id="SwxSvwiUy3ZBpfJo5GRu-16" value="" style="endArrow=classic;html=1;rounded=0;exitX=0.292;exitY=1.021;exitDx=0;exitDy=0;exitPerimeter=0;entryX=0.383;entryY=0.004;entryDx=0;entryDy=0;entryPerimeter=0;fillColor=#d5e8d4;strokeColor=#82b366;" parent="1" source="SwxSvwiUy3ZBpfJo5GRu-2" target="SwxSvwiUy3ZBpfJo5GRu-3" edge="1">
          <mxGeometry width="50" height="50" relative="1" as="geometry">
            <mxPoint x="380" y="270" as="sourcePoint" />
            <mxPoint x="430" y="220" as="targetPoint" />
            <Array as="points" />
          </mxGeometry>
        </mxCell>
        <mxCell id="SwxSvwiUy3ZBpfJo5GRu-20" value="POSE_ARTICLE" style="edgeLabel;html=1;align=center;verticalAlign=middle;resizable=0;points=[];fontStyle=2" parent="SwxSvwiUy3ZBpfJo5GRu-16" vertex="1" connectable="0">
          <mxGeometry x="0.2309" y="-2" relative="1" as="geometry">
            <mxPoint as="offset" />
          </mxGeometry>
        </mxCell>
        <mxCell id="SwxSvwiUy3ZBpfJo5GRu-17" value="" style="endArrow=classic;html=1;rounded=0;entryX=0.974;entryY=0.646;entryDx=0;entryDy=0;entryPerimeter=0;fillColor=#d5e8d4;strokeColor=#82b366;" parent="1" source="SwxSvwiUy3ZBpfJo5GRu-3" target="SwxSvwiUy3ZBpfJo5GRu-5" edge="1">
          <mxGeometry width="50" height="50" relative="1" as="geometry">
            <mxPoint x="380" y="270" as="sourcePoint" />
            <mxPoint x="430" y="220" as="targetPoint" />
          </mxGeometry>
        </mxCell>
        <mxCell id="SwxSvwiUy3ZBpfJo5GRu-22" value="ENLEVE_PRODUIT^" style="edgeLabel;html=1;align=center;verticalAlign=middle;resizable=0;points=[];fontStyle=2" parent="SwxSvwiUy3ZBpfJo5GRu-17" vertex="1" connectable="0">
          <mxGeometry x="0.2817" y="3" relative="1" as="geometry">
            <mxPoint x="7" y="15" as="offset" />
          </mxGeometry>
        </mxCell>
        <mxCell id="SwxSvwiUy3ZBpfJo5GRu-18" value="" style="endArrow=classic;html=1;rounded=0;entryX=0.658;entryY=1.004;entryDx=0;entryDy=0;exitX=0.667;exitY=0;exitDx=0;exitDy=0;exitPerimeter=0;entryPerimeter=0;fillColor=#d5e8d4;strokeColor=#82b366;" parent="1" source="SwxSvwiUy3ZBpfJo5GRu-3" target="SwxSvwiUy3ZBpfJo5GRu-2" edge="1">
          <mxGeometry width="50" height="50" relative="1" as="geometry">
            <mxPoint x="380" y="270" as="sourcePoint" />
            <mxPoint x="430" y="220" as="targetPoint" />
          </mxGeometry>
        </mxCell>
        <mxCell id="SwxSvwiUy3ZBpfJo5GRu-19" value="ENLEVE_ARTICLE" style="edgeLabel;html=1;align=center;verticalAlign=middle;resizable=0;points=[];fontStyle=2" parent="SwxSvwiUy3ZBpfJo5GRu-18" vertex="1" connectable="0">
          <mxGeometry x="0.2434" y="4" relative="1" as="geometry">
            <mxPoint x="15" as="offset" />
          </mxGeometry>
        </mxCell>
        <mxCell id="DBfH7FKL9_jUQKkKiDcR-2" value="EtatSaisiQuantite" style="ellipse;whiteSpace=wrap;html=1;" vertex="1" parent="1">
          <mxGeometry x="500" y="-10" width="165" height="70" as="geometry" />
        </mxCell>
        <mxCell id="DBfH7FKL9_jUQKkKiDcR-3" value="" style="endArrow=classic;html=1;rounded=0;entryX=0;entryY=0.5;entryDx=0;entryDy=0;exitX=0.5;exitY=0;exitDx=0;exitDy=0;fillColor=#d5e8d4;strokeColor=#82b366;" edge="1" parent="1" source="SwxSvwiUy3ZBpfJo5GRu-1" target="DBfH7FKL9_jUQKkKiDcR-2">
          <mxGeometry width="50" height="50" relative="1" as="geometry">
            <mxPoint x="220" y="110" as="sourcePoint" />
            <mxPoint x="270" y="60" as="targetPoint" />
          </mxGeometry>
        </mxCell>
        <mxCell id="DBfH7FKL9_jUQKkKiDcR-8" value="&lt;i&gt;SCAN_PRODUIT^&lt;br&gt;&lt;/i&gt;" style="edgeLabel;html=1;align=center;verticalAlign=middle;resizable=0;points=[];" vertex="1" connectable="0" parent="DBfH7FKL9_jUQKkKiDcR-3">
          <mxGeometry x="0.0547" relative="1" as="geometry">
            <mxPoint as="offset" />
          </mxGeometry>
        </mxCell>
        <mxCell id="DBfH7FKL9_jUQKkKiDcR-9" value="" style="endArrow=classic;html=1;rounded=0;entryX=0.982;entryY=0.681;entryDx=0;entryDy=0;entryPerimeter=0;exitX=1;exitY=0.5;exitDx=0;exitDy=0;fillColor=#d5e8d4;strokeColor=#82b366;" edge="1" parent="1" source="SwxSvwiUy3ZBpfJo5GRu-3" target="DBfH7FKL9_jUQKkKiDcR-2">
          <mxGeometry width="50" height="50" relative="1" as="geometry">
            <mxPoint x="380" y="280" as="sourcePoint" />
            <mxPoint x="430" y="230" as="targetPoint" />
            <Array as="points">
              <mxPoint x="770" y="300" />
            </Array>
          </mxGeometry>
        </mxCell>
        <mxCell id="DBfH7FKL9_jUQKkKiDcR-10" value="&lt;i&gt;SCAN_PRODUIT^&lt;br&gt;&lt;/i&gt;" style="edgeLabel;html=1;align=center;verticalAlign=middle;resizable=0;points=[];" vertex="1" connectable="0" parent="DBfH7FKL9_jUQKkKiDcR-9">
          <mxGeometry x="0.2864" y="2" relative="1" as="geometry">
            <mxPoint as="offset" />
          </mxGeometry>
        </mxCell>
        <mxCell id="DBfH7FKL9_jUQKkKiDcR-11" value="" style="endArrow=classic;html=1;rounded=0;entryX=0.742;entryY=0.046;entryDx=0;entryDy=0;entryPerimeter=0;fillColor=#d5e8d4;strokeColor=#82b366;" edge="1" parent="1" source="DBfH7FKL9_jUQKkKiDcR-2" target="SwxSvwiUy3ZBpfJo5GRu-2">
          <mxGeometry width="50" height="50" relative="1" as="geometry">
            <mxPoint x="380" y="280" as="sourcePoint" />
            <mxPoint x="430" y="230" as="targetPoint" />
          </mxGeometry>
        </mxCell>
        <mxCell id="DBfH7FKL9_jUQKkKiDcR-12" value="&lt;i&gt;SAISIE_QUANTITE&lt;/i&gt;" style="edgeLabel;html=1;align=center;verticalAlign=middle;resizable=0;points=[];" vertex="1" connectable="0" parent="DBfH7FKL9_jUQKkKiDcR-11">
          <mxGeometry x="-0.4171" y="1" relative="1" as="geometry">
            <mxPoint x="-7" y="4" as="offset" />
          </mxGeometry>
        </mxCell>
      </root>
    </mxGraphModel>
  </diagram>
</mxfile>
